<svg fill="none" height="64" width="64" xmlns="http://www.w3.org/2000/svg"><path clip-rule="evenodd" d="M49.452 28.373v15.275l-17.456 8.727-17.457-8.727V28.373l17.457-8.73 17.456 8.73Z" fill="url(#a)" fill-rule="evenodd"/><path clip-rule="evenodd" d="M31.995 19.643v32.732l-17.457-8.727V28.373l17.457-8.73Z" fill="url(#b)" fill-rule="evenodd"/><path clip-rule="evenodd" d="m56 20.734-6.548 7.637-17.457-8.727 6.546-7.64L56 20.735Z" fill="url(#c)" fill-rule="evenodd"/><path clip-rule="evenodd" d="m8 20.73 6.548 7.636 17.457-8.727L25.459 12 8 20.73Z" fill="url(#d)" fill-rule="evenodd"/><path d="M32 39c6.627 0 12-5.373 12-12 0-6.628-5.373-12-12-12s-12 5.372-12 12c0 6.627 5.373 12 12 12Z" fill="url(#e)"/><path d="M24.469 27.587c1.403-.773 2.968-1.418 4.432-2.066 2.517-1.062 5.044-2.105 7.596-3.076.497-.166 1.39-.328 1.477.408-.048 1.042-.245 2.078-.38 3.113-.343 2.278-.74 4.548-1.127 6.818-.133.756-1.08 1.148-1.686.664-1.457-.984-2.925-1.959-4.363-2.965-.47-.479-.034-1.166.387-1.508 1.2-1.182 2.472-2.187 3.609-3.43.306-.74-.6-.117-.899.074-1.642 1.132-3.244 2.333-4.976 3.328-.884.487-1.915.07-2.8-.201-.792-.328-1.954-.659-1.27-1.16Z" fill="#fff"/><path clip-rule="evenodd" d="m49.452 43.647-17.457 8.729V37.101l17.457-8.73v15.276Z" fill="url(#f)" fill-rule="evenodd"/><path clip-rule="evenodd" d="m14.536 43.647 17.46 8.729V37.101l-17.46-8.73v15.276Z" fill="url(#g)" fill-rule="evenodd"/><path clip-rule="evenodd" d="M49.452 28.371 56 33.826l-17.459 8.73-6.546-5.455 17.457-8.73Z" fill="url(#h)" fill-rule="evenodd"/><path clip-rule="evenodd" d="M14.548 28.366 8 33.822l17.459 8.729 6.546-5.455-17.457-8.73Z" fill="url(#i)" fill-rule="evenodd"/><defs><linearGradient gradientUnits="userSpaceOnUse" id="a" x1="49.085" x2="51.792" y1="51.995" y2="23.558"><stop stop-color="#dd787d"/><stop offset="1" stop-color="#6e4242"/></linearGradient><linearGradient gradientUnits="userSpaceOnUse" id="b" x1="34.547" x2="20.084" y1="41.8" y2="26.533"><stop stop-color="#dd787d"/><stop offset="1" stop-color="#6e4242"/></linearGradient><linearGradient gradientUnits="userSpaceOnUse" id="c" x1="48.589" x2="54.733" y1="26.828" y2="11.05"><stop stop-color="#dd787d"/><stop offset="1" stop-color="#dd787d"/></linearGradient><linearGradient gradientUnits="userSpaceOnUse" id="d" x1="24.926" x2="18.16" y1="30.639" y2="17.261"><stop stop-color="#dd787d"/><stop offset="1" stop-color="#814c4c"/></linearGradient><linearGradient gradientUnits="userSpaceOnUse" id="e" x1="29.001" x2="23.001" y1="16" y2="30"><stop stop-color="#37AEE2"/><stop offset="1" stop-color="#1E96C8"/></linearGradient><linearGradient gradientUnits="userSpaceOnUse" id="f" x1="47.175" x2="45.122" y1="46.712" y2="32.118"><stop stop-color="#dd787d"/><stop offset="1" stop-color="#302626"/></linearGradient><linearGradient gradientUnits="userSpaceOnUse" id="g" x1="16.68" x2="19.029" y1="46.517" y2="32.048"><stop stop-color="#dd787d"/><stop offset="1" stop-color="#723437"/></linearGradient><linearGradient gradientUnits="userSpaceOnUse" id="h" x1="28.097" x2="33.036" y1="35.517" y2="46.844"><stop stop-color="#dd787d"/><stop offset="1" stop-color="#723437"/></linearGradient><linearGradient gradientUnits="userSpaceOnUse" id="i" x1="34.631" x2="28.586" y1="35.915" y2="53.226"><stop stop-color="#dd787d"/><stop offset="1" stop-color="#723437"/></linearGradient></defs></svg>