<svg style="enable-background:new 0 0 64 64" viewBox="0 0 64 64" xml:space="preserve" xmlns="http://www.w3.org/2000/svg"><style>.st0{fill:#231f20}</style><g id="Board"><path class="st0" d="M34.2 6h-4.5c-.4.5-.7 1.2-.7 2 0 1.6 1.3 3 3 3s3-1.4 3-3c0-.8-.3-1.5-.8-2z"/><path class="st0" d="M52 58H12c-1.1 0-2-.9-2-2V8c0-1.1.9-2 2-2h40c1.1 0 2 .9 2 2v48c0 1.1-.9 2-2 2zM12 8v48h40V8H12z"/><path class="st0" d="M41 16H23c-1.1 0-2-.9-2-2V8c0-1.1.9-2 2-2h18c1.1 0 2 .9 2 2v6c0 1.1-.9 2-2 2zM23 8v6h18V8H23zM19 27c-.3 0-.5-.1-.7-.3l-2-2c-.4-.4-.4-1 0-1.4s1-.4 1.4 0l2 2c.4.4.4 1 0 1.4-.2.2-.4.3-.7.3z"/><path class="st0" d="m19 27.4-2.7-2.7c-.4-.4-.4-1 0-1.4s1-.4 1.4 0l1.3 1.3 3.3-3.3c.4-.4 1-.4 1.4 0s.4 1 0 1.4L19 27.4zM19 35c-.3 0-.5-.1-.7-.3l-2-2c-.4-.4-.4-1 0-1.4s1-.4 1.4 0l2 2c.4.4.4 1 0 1.4-.2.2-.4.3-.7.3z"/><path class="st0" d="m19 35.4-2.7-2.7c-.4-.4-.4-1 0-1.4s1-.4 1.4 0l1.3 1.3 3.3-3.3c.4-.4 1-.4 1.4 0s.4 1 0 1.4L19 35.4zM19 43c-.3 0-.5-.1-.7-.3l-2-2c-.4-.4-.4-1 0-1.4s1-.4 1.4 0l2 2c.4.4.4 1 0 1.4-.2.2-.4.3-.7.3z"/><path class="st0" d="m19 43.4-2.7-2.7c-.4-.4-.4-1 0-1.4s1-.4 1.4 0l1.3 1.3 3.3-3.3c.4-.4 1-.4 1.4 0s.4 1 0 1.4L19 43.4zM19 51c-.3 0-.5-.1-.7-.3l-2-2c-.4-.4-.4-1 0-1.4s1-.4 1.4 0l2 2c.4.4.4 1 0 1.4-.2.2-.4.3-.7.3z"/><path class="st0" d="m19 51.4-2.7-2.7c-.4-.4-.4-1 0-1.4s1-.4 1.4 0l1.3 1.3 3.3-3.3c.4-.4 1-.4 1.4 0s.4 1 0 1.4L19 51.4zM47 24H32c-.6 0-1-.4-1-1s.4-1 1-1h15c.6 0 1 .4 1 1s-.4 1-1 1zM47 27H32c-.6 0-1-.4-1-1s.4-1 1-1h15c.6 0 1 .4 1 1s-.4 1-1 1zM47 32H32c-.6 0-1-.4-1-1s.4-1 1-1h15c.6 0 1 .4 1 1s-.4 1-1 1zM47 35H32c-.6 0-1-.4-1-1s.4-1 1-1h15c.6 0 1 .4 1 1s-.4 1-1 1zM47 40H32c-.6 0-1-.4-1-1s.4-1 1-1h15c.6 0 1 .4 1 1s-.4 1-1 1zM47 43H32c-.6 0-1-.4-1-1s.4-1 1-1h15c.6 0 1 .4 1 1s-.4 1-1 1zM47 48H32c-.6 0-1-.4-1-1s.4-1 1-1h15c.6 0 1 .4 1 1s-.4 1-1 1zM47 51H32c-.6 0-1-.4-1-1s.4-1 1-1h15c.6 0 1 .4 1 1s-.4 1-1 1z"/></g></svg>